
<svg width="64" height="64" viewBox="0 0 64 64" fill="none" xmlns="http://www.w3.org/2000/svg">
<path d="M0 4C0 1.79086 1.79086 0 4 0H60C62.2091 0 64 1.79086 64 4V60C64 62.2091 62.2091 64 60 64H4C1.79086 64 0 62.2091 0 60V4Z" fill="white"/>
<path d="M0 4C0 1.79086 1.79086 0 4 0H60C62.2091 0 64 1.79086 64 4V60C64 62.2091 62.2091 64 60 64H4C1.79086 64 0 62.2091 0 60V4Z" fill="url(#paint0_linear_1153_1380)"/>
<path d="M0 4C0 1.79086 1.79086 0 4 0H60C62.2091 0 64 1.79086 64 4V60C64 62.2091 62.2091 64 60 64H4C1.79086 64 0 62.2091 0 60V4Z" fill="url(#paint1_radial_1153_1380)" fill-opacity="0.8"/>
<g clip-path="url(#clip0_1153_1380)">
<path d="M51.8101 50.276H12.1954C11.3546 50.276 10.6667 50.953 10.6667 51.8047C10.6667 52.6455 11.3437 53.3334 12.1954 53.3334H51.7992C52.64 53.3334 53.3279 52.6564 53.3279 51.8047C53.3279 50.964 52.6509 50.276 51.8101 50.276Z" fill="white"/>
<path d="M12.1954 28.7107H16.6614V43.528H14.958C14.1172 43.528 13.4293 44.205 13.4293 45.0567C13.4293 45.8975 14.1063 46.5854 14.958 46.5854H49.0476C49.8884 46.5854 50.5763 45.9084 50.5763 45.0567C50.5763 44.2159 49.8993 43.528 49.0476 43.528H47.3552V28.7107H51.8102C52.4653 28.7107 53.0441 28.2958 53.2515 27.6734C53.459 27.051 53.2515 26.374 52.7274 25.97L32.92 10.9779C32.3741 10.563 31.6206 10.563 31.0856 10.9779L11.2782 25.97C10.7541 26.3631 10.5466 27.051 10.7541 27.6734C10.9616 28.2848 11.5403 28.7107 12.1954 28.7107ZM19.7078 28.7107H25.8772V43.528H19.7078V28.7107ZM35.0929 28.7107V43.528H28.9236V28.7107H35.0929ZM44.3087 43.5171H38.1394V28.7107H44.3087V43.5171ZM32.0028 14.1008L47.2678 25.6642H16.7378L32.0028 14.1008Z" fill="white"/>
</g>
<defs>
<linearGradient id="paint0_linear_1153_1380" x1="66.6667" y1="-2.66667" x2="3.97364e-06" y2="64" gradientUnits="userSpaceOnUse">
<stop stop-color="#615BAB"/>
<stop offset="0.50114" stop-color="#6FA1EC"/>
<stop offset="1" stop-color="#6BCDDB"/>
</linearGradient>
<radialGradient id="paint1_radial_1153_1380" cx="0" cy="0" r="1" gradientUnits="userSpaceOnUse" gradientTransform="rotate(45) scale(60.3398 45.2548)">
<stop stop-color="#2F73DA"/>
<stop offset="1" stop-color="#2F73DA" stop-opacity="0"/>
</radialGradient>
<clipPath id="clip0_1153_1380">
<rect width="42.6667" height="42.6667" fill="white" transform="translate(10.6667 10.6667)"/>
</clipPath>
</defs>
</svg>
