<svg width="240" height="64" viewBox="20 0 64 64" fill="none" xmlns="http://www.w3.org/2000/svg">
  <path d="M20 4C20 1.79086 21.7909 0 24 0H80C82.2091 0 84 1.79086 84 4V60C84 62.2091 82.2091 64 80 64H24C21.7909 64 20 62.2091 20 60V4Z" fill="black"/>
  <path d="M20 4C20 1.79086 21.7909 0 24 0H80C82.2091 0 84 1.79086 84 4V60C84 62.2091 82.2091 64 80 64H24C21.7909 64 20 62.2091 20 60V4Z" fill="url(#paint0_linear_1164:1568)"/>
  <path d="M20 4C20 1.79086 21.7909 0 24 0H80C82.2091 0 84 1.79086 84 4V60C84 62.2091 82.2091 64 80 64H24C21.7909 64 20 62.2091 20 60V4Z" fill="url(#paint1_radial_1164:1568)" fill-opacity="0.8"/>
  <g clip-path="url(#clip0_1164:1568)">
    <path d="M58.9168 10.9146H45.1668C43.0025 10.9146 41.248 12.6691 41.248 14.8334V47.8334C41.248 49.9976 43.0025 51.7521 45.1668 51.7521H58.9168C61.0811 51.7521 62.8355 49.9976 62.8355 47.8334V14.8334C62.8355 12.6691 61.0811 10.9146 58.9168 10.9146Z" stroke="white" stroke-width="2.93333"/>
    <path d="M54.104 13.4583H49.979C49.5993 13.4583 49.2915 13.7661 49.2915 14.1458C49.2915 14.5255 49.5993 14.8333 49.979 14.8333H54.104C54.4837 14.8333 54.7915 14.5255 54.7915 14.1458C54.7915 13.7661 54.4837 13.4583 54.104 13.4583Z" fill="white"/>
    <path d="M57.5415 20.3333H46.5415C45.7821 20.3333 45.1665 20.9489 45.1665 21.7083V25.8333C45.1665 26.5927 45.7821 27.2083 46.5415 27.2083H57.5415C58.3009 27.2083 58.9165 26.5927 58.9165 25.8333V21.7083C58.9165 20.9489 58.3009 20.3333 57.5415 20.3333Z" fill="white"/>
    <path d="M57.5415 28.5833H46.5415C45.7821 28.5833 45.1665 29.1989 45.1665 29.9583C45.1665 30.7177 45.7821 31.3333 46.5415 31.3333H57.5415C58.3009 31.3333 58.9165 30.7177 58.9165 29.9583C58.9165 29.1989 58.3009 28.5833 57.5415 28.5833Z" fill="white"/>
    <path d="M54.7915 32.7083H46.5415C45.7821 32.7083 45.1665 33.3239 45.1665 34.0833C45.1665 34.8427 45.7821 35.4583 46.5415 35.4583H54.7915C55.5509 35.4583 56.1665 34.8427 56.1665 34.0833C56.1665 33.3239 55.5509 32.7083 54.7915 32.7083Z" fill="white"/>
  </g>
  <rect opacity="0.2" x="20.25" y="0.25" width="63.5" height="63.5" rx="3.75" stroke="#121417" stroke-width="0.5"/>
  <defs>
    <linearGradient id="paint0_linear_1164:1568" x1="20" y1="-10.6667" x2="84" y2="53.3333" gradientUnits="userSpaceOnUse">
      <stop stop-color="#6BCDDB" stop-opacity="0.95"/>
      <stop offset="0.503099" stop-color="#58AC7B"/>
      <stop offset="1" stop-color="#B3DE8C"/>
    </linearGradient>
    <radialGradient id="paint1_radial_1164:1568" cx="0" cy="0" r="1" gradientUnits="userSpaceOnUse" gradientTransform="translate(84) rotate(135) scale(90.5097)">
      <stop stop-color="#338B7A"/>
      <stop offset="1" stop-color="#338B7A" stop-opacity="0"/>
    </radialGradient>
    <clipPath id="clip0_1164:1568">
      <rect width="24.75" height="44" fill="white" transform="translate(39.6665 9.33331)"/>
    </clipPath>
  </defs>
</svg>
