<svg width="240" height="106" viewBox="0 0 240 106" fill="none" xmlns="http://www.w3.org/2000/svg">
<rect y="22" width="240" height="40" rx="20" fill="#EEF1F6"/>
<rect x="145" y="40.5" width="3" height="3" rx="1.5" fill="#6A7381"/>
<rect x="138" y="40.5" width="3" height="3" rx="1.5" fill="#6A7381"/>
<rect x="92" y="40.5" width="3" height="3" rx="1.5" fill="#6A7381"/>
<rect x="99" y="40.5" width="3" height="3" rx="1.5" fill="#6A7381"/>
<circle cx="120" cy="42" r="14" fill="#6A7381"/>
<path fill-rule="evenodd" clip-rule="evenodd" d="M126.39 36.9976C126.737 36.6608 127.291 36.6686 127.627 37.0151C127.964 37.3615 127.956 37.9155 127.61 38.2524L118.61 47.0024C118.27 47.3325 117.73 47.3325 117.39 47.0024L112.39 42.1413C112.044 41.8044 112.036 41.2504 112.373 40.9039C112.709 40.5575 113.263 40.5497 113.61 40.8865L118 45.1546L126.39 36.9976Z" fill="white"/>
<g filter="url(#filter0_dd)">
<rect x="20" y="10" width="64" height="64" rx="4" fill="url(#paint0_linear)"/>
<path d="M60.4357 50.6674C68.5926 50.6674 75.205 44.055 75.205 35.8981C75.205 27.7413 68.5926 21.1289 60.4357 21.1289C52.2789 21.1289 45.6665 27.7413 45.6665 35.8981C45.6665 44.055 52.2789 50.6674 60.4357 50.6674Z" fill="black" fill-opacity="0.12"/>
<path d="M77.1664 33.4362C77.1664 41.3169 70.7778 47.7055 62.8972 47.7055C55.0165 47.7055 48.6279 41.3169 48.6279 33.4362C48.6279 25.5555 55.0165 19.167 62.8972 19.167C70.7778 19.167 77.1664 25.5555 77.1664 33.4362Z" fill="url(#paint1_linear)" stroke="#E3BB80"/>
<path fill-rule="evenodd" clip-rule="evenodd" d="M72.4081 30.8875C73.8155 36.1401 70.6984 41.5391 65.4458 42.9466C60.1932 44.354 54.7942 41.2369 53.3868 35.9843C51.9793 30.7317 55.0964 25.3327 60.349 23.9253C65.6016 22.5178 71.0006 25.635 72.4081 30.8875ZM60.4211 31.8425C61.3905 32.0843 62.9588 32.0925 64.365 32.0686C66.5908 32.0307 68.1363 33.0736 68.3023 34.7258C68.4452 36.1446 67.4705 37.8838 65.3545 38.8155L65.5183 39.4269C65.6497 39.9173 65.2929 40.4392 64.7214 40.5923C64.1499 40.7454 63.5799 40.4719 63.4485 39.9815L63.3017 39.4336C62.2389 39.6667 61.3604 39.7147 60.0037 39.48C59.4382 39.3822 59.1057 38.894 59.2611 38.3896C59.4166 37.8851 60.0011 37.5555 60.5663 37.6533C61.8974 37.8834 62.4617 37.7793 63.8592 37.3978C65.0698 37.0674 66.2969 36.1248 66.1866 35.0289C66.1143 34.3101 65.406 33.9092 64.2433 33.929C62.0033 33.9671 60.6864 33.882 59.6976 33.6355C58.5683 33.3539 57.82 32.5108 57.7448 31.4352C57.6564 30.1742 58.5075 28.8964 59.9132 28.1795C60.0244 28.1229 60.1344 28.071 60.2438 28.0212L60.1019 27.4917C59.9705 27.0013 60.3273 26.4794 60.8988 26.3263C61.4703 26.1732 62.0402 26.4467 62.1717 26.9371L62.2989 27.4119C63.8069 27.1926 64.8564 27.5231 64.92 27.5437C65.4547 27.7185 65.6927 28.2518 65.4515 28.735C65.2121 29.2153 64.5894 29.4652 64.0568 29.2966C63.9799 29.2737 62.6069 28.8858 60.8737 29.7698C60.0851 30.172 59.8354 30.762 59.8647 31.1801C59.8787 31.3792 59.9696 31.7299 60.4211 31.8425Z" fill="#CDA975"/>
<path d="M33.0791 63.6596C38.4137 65.0891 43.8971 61.9232 45.3265 56.5886C46.7559 51.2539 43.5901 45.7705 38.2555 44.3411C32.9208 42.9117 27.4374 46.0775 26.008 51.4122C24.5786 56.7468 27.7444 62.2302 33.0791 63.6596Z" fill="black" fill-opacity="0.12"/>
<path d="M46.8431 54.4592C45.4851 59.5271 40.2759 62.5346 35.208 61.1767C30.1401 59.8187 27.1325 54.6095 28.4905 49.5416C29.8484 44.4737 35.0576 41.4661 40.1256 42.8241C45.1935 44.182 48.201 49.3912 46.8431 54.4592Z" fill="url(#paint2_linear)" stroke="#E3BB80"/>
<path fill-rule="evenodd" clip-rule="evenodd" d="M44.1067 53.7254C43.1537 57.2818 39.4982 59.3924 35.9417 58.4394C32.3853 57.4865 30.2747 53.8309 31.2277 50.2745C32.1806 46.718 35.8362 44.6075 39.3926 45.5604C42.9491 46.5134 45.0596 50.1689 44.1067 53.7254ZM36.7547 50.2273C37.2412 50.6972 38.158 51.233 38.9907 51.695C40.3086 52.4263 40.8618 53.5611 40.3999 54.5861C40.0033 55.4664 38.843 56.1563 37.2868 55.9862L37.1758 56.4002C37.0869 56.7322 36.701 56.9174 36.314 56.8137C35.9271 56.71 35.6855 56.3567 35.7745 56.0247L35.8739 55.6537C35.1717 55.4306 34.6404 55.1613 33.9243 54.5644C33.6258 54.3156 33.5961 53.9168 33.858 53.6736C34.1199 53.4304 34.5743 53.435 34.8726 53.6837C35.5752 54.2693 35.9414 54.3993 36.89 54.6487C37.7117 54.8648 38.7503 54.7275 39.0566 54.0476C39.2576 53.6016 38.978 53.1267 38.2895 52.7447C36.9631 52.0087 36.2197 51.513 35.7234 51.0337C35.1565 50.4863 35.0032 49.7386 35.3232 49.0824C35.6983 48.3131 36.6299 47.8519 37.6969 47.9075C37.7813 47.9119 37.8633 47.9187 37.9443 47.9266L38.0404 47.568C38.1294 47.236 38.5153 47.0508 38.9022 47.1545C39.2892 47.2582 39.5308 47.6115 39.4418 47.9435L39.3557 48.265C40.3141 48.647 40.8177 49.196 40.848 49.2297C41.1023 49.5132 41.0613 49.9065 40.7564 50.1081C40.4534 50.3087 40.0036 50.2444 39.7484 49.9653C39.711 49.9258 39.0373 49.2336 37.7217 49.1651C37.1232 49.134 36.777 49.3954 36.6527 49.6505C36.5935 49.772 36.528 50.0084 36.7547 50.2273Z" fill="#CDA975"/>
<rect opacity="0.2" x="20.25" y="10.25" width="63.5" height="63.5" rx="3.75" stroke="#121417" stroke-width="0.5"/>
</g>
<g filter="url(#filter1_dd)">
<rect x="156" y="10" width="64" height="64" rx="4" fill="#2F73DA"/>
<rect x="220" y="74" width="64" height="64" rx="4" transform="rotate(-180 220 74)" fill="url(#paint3_linear)"/>
<path d="M175.775 28.5557H200.868V56.7573H175.775V28.5557Z" fill="#808B95"/>
<path d="M179.108 50.8894C177.158 51.5659 175.209 51.5659 173.26 50.8894C173.085 45.8664 173.053 41.6804 173.164 36.6573C173.189 35.5314 173.22 34.4048 173.26 33.2789C175.209 32.6023 177.158 32.6023 179.108 33.2789C179.147 34.4048 179.179 35.5314 179.204 36.6573C179.315 41.6804 179.283 45.8664 179.108 50.8894Z" fill="#F7F9F9"/>
<path d="M179.204 36.6573H173.164C173.189 35.5314 173.22 34.4048 173.259 33.2789C175.209 32.6023 177.158 32.6023 179.108 33.2789C179.147 34.4048 179.179 35.5314 179.204 36.6573Z" fill="#DAE4EA"/>
<path d="M175.138 51.3324C174.512 51.2546 173.886 51.1073 173.26 50.8899C173.046 44.741 173.046 39.4283 173.26 33.2794C173.886 33.0619 174.512 32.9147 175.138 32.8369C175.072 39.281 175.072 44.8874 175.138 51.3324Z" fill="#DAE4EA"/>
<path d="M180.486 32.1204V33.9991C180.486 34.6621 179.948 35.1997 179.285 35.1997H176.134H176.023L173.999 35.1591L173.2 35.1997H173.083C172.419 35.1997 171.881 34.6621 171.881 33.9991V32.1204C171.881 31.4566 172.419 30.9189 173.083 30.9189H179.285C179.948 30.9189 180.486 31.4566 180.486 32.1204Z" fill="#F7F9F9"/>
<path d="M180.488 32.1185V33.859C177.215 33.7964 174.242 33.6982 171.883 33.6053V32.1184C171.883 31.4547 172.421 30.917 173.085 30.917H179.287C179.95 30.9171 180.488 31.4548 180.488 32.1185Z" fill="#DAE4EA"/>
<path d="M176.134 35.1987H173.082C172.419 35.1987 171.882 34.6611 171.882 33.9981V32.1186C171.882 31.4556 172.419 30.918 173.082 30.918H176.134C175.471 30.918 174.933 31.4556 174.933 32.1186V33.9981C174.933 34.6611 175.471 35.1987 176.134 35.1987Z" fill="#DAE4EA"/>
<path d="M179.285 54.1712L176.133 55.3153L173.082 54.1712C172.419 54.1712 171.881 53.6336 171.881 52.9704V51.0914C171.881 50.4282 172.419 50.1429 173.082 50.1429L175.358 49.8906H179.285C179.948 49.8906 180.485 50.4282 180.485 51.0914V52.9704C180.485 53.6336 179.948 54.1712 179.285 54.1712Z" fill="#F7F9F9"/>
<path d="M176.133 54.1713H173.082C172.419 54.1713 171.881 53.6337 171.881 52.9707V51.0912C171.881 50.4282 172.419 49.8906 173.082 49.8906H175.268H176.133C175.47 49.8906 174.933 50.4282 174.933 51.0912V52.9707C174.933 53.6337 175.47 54.1713 176.133 54.1713Z" fill="#DAE4EA"/>
<path d="M202.74 50.8894C200.79 51.566 198.841 51.566 196.892 50.8894C196.716 45.8664 196.685 41.6804 196.796 36.6573C196.821 35.5314 196.852 34.4048 196.892 33.2789C198.841 32.6023 200.79 32.6023 202.74 33.2789C202.779 34.4048 202.811 35.5314 202.836 36.6573C202.947 41.6804 202.915 45.8664 202.74 50.8894Z" fill="#F7F9F9"/>
<path d="M202.836 36.6573H196.796C196.821 35.5314 196.853 34.4048 196.892 33.2789C198.841 32.6023 200.79 32.6023 202.74 33.2789C202.779 34.4048 202.811 35.5314 202.836 36.6573Z" fill="#DAE4EA"/>
<path d="M198.77 51.3324C198.144 51.2546 197.518 51.1073 196.892 50.8899C196.677 44.741 196.677 39.4283 196.892 33.2794C197.518 33.0619 198.144 32.9147 198.77 32.8369C198.704 39.281 198.704 44.8874 198.77 51.3324Z" fill="#DAE4EA"/>
<path d="M204.117 32.1184V33.9971C204.117 34.6601 203.58 35.1977 202.917 35.1977H199.58L198.051 35.1743L196.831 35.1977H196.714C196.051 35.1977 195.514 34.6601 195.514 33.9971V32.1184C195.514 31.4547 196.051 30.917 196.714 30.917H202.917C203.58 30.917 204.117 31.4547 204.117 32.1184Z" fill="#F7F9F9"/>
<path d="M204.119 32.1184V33.5456C201.901 33.6415 198.906 33.7517 195.516 33.8288V32.1184C195.516 31.4547 196.053 30.917 196.716 30.917H202.919C203.582 30.917 204.119 31.4547 204.119 32.1184Z" fill="#DAE4EA"/>
<path d="M199.766 35.1987H196.714C196.051 35.1987 195.514 34.6611 195.514 33.9981V32.1186C195.514 31.4556 196.051 30.918 196.714 30.918H199.766C199.103 30.918 198.565 31.4556 198.565 32.1186V33.9981C198.565 34.6611 199.103 35.1987 199.766 35.1987Z" fill="#DAE4EA"/>
<path d="M190.924 50.8894C188.974 51.566 187.025 51.566 185.075 50.8894C184.9 45.8664 184.868 41.6804 184.979 36.6573C185.004 35.5314 185.036 34.4048 185.075 33.2789C187.025 32.6023 188.974 32.6023 190.924 33.2789C190.963 34.4048 190.995 35.5314 191.019 36.6573C191.13 41.6804 191.099 45.8664 190.924 50.8894Z" fill="#F7F9F9"/>
<path d="M191.019 36.6573H184.979C185.004 35.5314 185.036 34.4048 185.075 33.2789C187.025 32.6023 188.974 32.6023 190.923 33.2789C190.963 34.4048 190.994 35.5314 191.019 36.6573Z" fill="#DAE4EA"/>
<path d="M186.953 51.3324C186.327 51.2546 185.701 51.1073 185.075 50.8899C184.861 44.741 184.861 39.4283 185.075 33.2794C185.701 33.0619 186.327 32.9147 186.953 32.8369C186.888 39.281 186.888 44.8874 186.953 51.3324Z" fill="#DAE4EA"/>
<path d="M192.302 32.1184V33.9971C192.302 34.6601 191.764 35.1977 191.101 35.1977H187.813L186.962 35.1571L185.016 35.1977H184.899C184.236 35.1977 183.698 34.6601 183.698 33.9971V32.1184C183.698 31.4547 184.236 30.917 184.899 30.917H191.101C191.764 30.917 192.302 31.4547 192.302 32.1184Z" fill="#F7F9F9"/>
<path d="M192.302 32.1184V33.5456C190.083 33.6415 187.089 33.7517 183.698 33.8288V32.1184C183.698 31.4547 184.236 30.917 184.899 30.917H191.101C191.764 30.917 192.302 31.4547 192.302 32.1184Z" fill="#DAE4EA"/>
<path d="M187.95 35.1987H184.899C184.236 35.1987 183.698 34.6611 183.698 33.9981V32.1186C183.698 31.4556 184.236 30.918 184.899 30.918H187.95C187.287 30.918 186.75 31.4556 186.75 32.1186V33.9981C186.75 34.6611 187.287 35.1987 187.95 35.1987Z" fill="#DAE4EA"/>
<path d="M191.101 54.1712L187.95 55.0648L184.899 54.1712C184.235 54.1712 183.698 53.6336 183.698 52.9704V51.0914C183.698 50.4282 184.235 50.251 184.899 50.251L187.201 49.8906H191.101C191.764 49.8906 192.302 50.4282 192.302 51.0914V52.9704C192.302 53.6336 191.764 54.1712 191.101 54.1712Z" fill="#F7F9F9"/>
<path d="M187.95 54.1714H184.898C184.235 54.1714 183.698 53.6337 183.698 52.9708V51.0912C183.698 50.4282 184.235 49.8906 184.898 49.8906H187.95C187.287 49.8906 186.749 50.4282 186.749 51.0912V52.9708C186.749 53.6337 187.287 54.1714 187.95 54.1714Z" fill="#DAE4EA"/>
<path d="M203.003 54.2806L199.852 55.4247L196.801 54.2806C196.138 54.2806 195.6 53.743 195.6 53.0798V51.2008C195.6 50.5376 196.138 50.2523 196.801 50.2523L199.077 50H203.003C203.667 50 204.204 50.5376 204.204 51.2008V53.0798C204.204 53.743 203.667 54.2806 203.003 54.2806Z" fill="#F7F9F9"/>
<path d="M199.852 54.2807H196.801C196.138 54.2807 195.6 53.7431 195.6 53.0801V51.2006C195.6 50.5376 196.138 50 196.801 50H198.987H199.852C199.189 50 198.652 50.5376 198.652 51.2006V53.0801C198.652 53.7431 199.189 54.2807 199.852 54.2807Z" fill="#DAE4EA"/>
<path d="M188.054 32.0994C195.92 32.0994 203.36 31.8259 207.537 31.6383C208.789 31.5821 209.265 29.9764 208.245 29.248C204.693 26.7094 197.793 22.7082 188 21.2002C178.207 22.7082 171.306 26.7094 167.754 29.248C166.735 29.9764 167.211 31.5822 168.462 31.6383C172.639 31.8259 180.079 32.0994 187.946 32.0994H188.054Z" fill="#F7F9F9"/>
<path d="M187.946 29.5047C182.229 29.5047 176.708 29.3568 172.636 29.21C176.172 27.1963 181.374 24.9049 188 23.8271C194.626 24.9049 199.828 27.1963 203.364 29.21C199.292 29.3568 193.771 29.5047 188.054 29.5047H187.946Z" fill="#DAE4EA"/>
<path d="M204.888 56.9785L188 58.3994L171.111 56.9785C170.613 56.9785 170.21 56.5755 170.21 56.0784V55.0369C170.21 54.5397 170.613 54.1367 171.111 54.1367H204.888C205.386 54.1367 205.789 54.5397 205.789 55.0369V56.0784C205.789 56.5755 205.386 56.9785 204.888 56.9785Z" fill="white"/>
<path d="M206.562 59.8203L188 61.2412L169.437 59.8203C168.917 59.8203 168.495 59.3983 168.495 58.8778V57.9211C168.495 57.4005 168.917 56.9785 169.437 56.9785H206.562C207.083 56.9785 207.505 57.4005 207.505 57.9211V58.8777C207.505 59.3983 207.083 59.8203 206.562 59.8203Z" fill="#DAE4EA"/>
<path d="M207.826 62.6621H168.174C167.636 62.6621 167.2 62.2263 167.2 61.6888V60.7937C167.2 60.2561 167.636 59.8203 168.174 59.8203H207.826C208.364 59.8203 208.799 60.2561 208.799 60.7937V61.6888C208.799 62.2264 208.364 62.6621 207.826 62.6621Z" fill="#A0AAB7"/>
<rect opacity="0.2" x="156.25" y="10.25" width="63.5" height="63.5" rx="3.75" stroke="#121417" stroke-width="0.5"/>
</g>
<defs>
<filter id="filter0_dd" x="0" y="0" width="104" height="106" filterUnits="userSpaceOnUse" color-interpolation-filters="sRGB">
<feFlood flood-opacity="0" result="BackgroundImageFix"/>
<feColorMatrix in="SourceAlpha" type="matrix" values="0 0 0 0 0 0 0 0 0 0 0 0 0 0 0 0 0 0 127 0"/>
<feOffset/>
<feGaussianBlur stdDeviation="5"/>
<feColorMatrix type="matrix" values="0 0 0 0 0.341176 0 0 0 0 0.4 0 0 0 0 0.458824 0 0 0 0.04 0"/>
<feBlend mode="normal" in2="BackgroundImageFix" result="effect1_dropShadow"/>
<feColorMatrix in="SourceAlpha" type="matrix" values="0 0 0 0 0 0 0 0 0 0 0 0 0 0 0 0 0 0 127 0"/>
<feOffset dy="12"/>
<feGaussianBlur stdDeviation="10"/>
<feColorMatrix type="matrix" values="0 0 0 0 0.341176 0 0 0 0 0.4 0 0 0 0 0.458824 0 0 0 0.2 0"/>
<feBlend mode="normal" in2="effect1_dropShadow" result="effect2_dropShadow"/>
<feBlend mode="normal" in="SourceGraphic" in2="effect2_dropShadow" result="shape"/>
</filter>
<filter id="filter1_dd" x="136" y="0" width="104" height="106" filterUnits="userSpaceOnUse" color-interpolation-filters="sRGB">
<feFlood flood-opacity="0" result="BackgroundImageFix"/>
<feColorMatrix in="SourceAlpha" type="matrix" values="0 0 0 0 0 0 0 0 0 0 0 0 0 0 0 0 0 0 127 0"/>
<feOffset/>
<feGaussianBlur stdDeviation="5"/>
<feColorMatrix type="matrix" values="0 0 0 0 0.341176 0 0 0 0 0.4 0 0 0 0 0.458824 0 0 0 0.04 0"/>
<feBlend mode="normal" in2="BackgroundImageFix" result="effect1_dropShadow"/>
<feColorMatrix in="SourceAlpha" type="matrix" values="0 0 0 0 0 0 0 0 0 0 0 0 0 0 0 0 0 0 127 0"/>
<feOffset dy="12"/>
<feGaussianBlur stdDeviation="10"/>
<feColorMatrix type="matrix" values="0 0 0 0 0.341176 0 0 0 0 0.4 0 0 0 0 0.458824 0 0 0 0.2 0"/>
<feBlend mode="normal" in2="effect1_dropShadow" result="effect2_dropShadow"/>
<feBlend mode="normal" in="SourceGraphic" in2="effect2_dropShadow" result="shape"/>
</filter>
<linearGradient id="paint0_linear" x1="52" y1="10" x2="52" y2="74" gradientUnits="userSpaceOnUse">
<stop stop-color="#98EAD6"/>
<stop offset="1" stop-color="#7FD4C0"/>
</linearGradient>
<linearGradient id="paint1_linear" x1="77.6664" y1="18.667" x2="48.1279" y2="48.2055" gradientUnits="userSpaceOnUse">
<stop stop-color="#FDD7A0"/>
<stop offset="1" stop-color="#FBECD6"/>
</linearGradient>
<linearGradient id="paint2_linear" x1="49.9142" y1="44.9293" x2="25.4193" y2="59.0714" gradientUnits="userSpaceOnUse">
<stop stop-color="#FDD7A0"/>
<stop offset="1" stop-color="#FBECD6"/>
</linearGradient>
<linearGradient id="paint3_linear" x1="252" y1="138" x2="252" y2="74" gradientUnits="userSpaceOnUse">
<stop stop-color="white" stop-opacity="0.25"/>
<stop offset="1" stop-color="white" stop-opacity="0.1"/>
</linearGradient>
</defs>
</svg>