<svg width="88" height="88" viewBox="0 0 88 88" fill="none" xmlns="http://www.w3.org/2000/svg">
<g filter="url(#filter0_i_2332_2104)">
<rect x="16.5" y="16.5" width="55" height="55" rx="27.5" stroke="#6A7381"/>
</g>
<g filter="url(#filter1_i_2332_2104)">
<rect x="8.5" y="8.5" width="71" height="71" rx="35.5" stroke="#49505A"/>
</g>
<g filter="url(#filter2_i_2332_2104)">
<rect x="0.5" y="0.5" width="87" height="87" rx="43.5" stroke="#1F2329"/>
</g>
<g clip-path="url(#clip0_2332_2104)">
<path d="M59.9193 35.25H63.9298C63.9906 35.25 64.0223 35.3209 63.9826 35.3602L57.198 43.9793C57.1769 44.0003 57.1769 44.0423 57.198 44.0607L63.9826 52.6797C64.0223 52.7296 63.9826 52.7926 63.9298 52.7926H59.9193C59.9008 52.7926 59.8797 52.7821 59.8691 52.7611L55.132 46.6117C55.1109 46.5829 55.0607 46.5829 55.029 46.6117L50.2919 52.7611C50.2814 52.7821 50.2629 52.7926 50.2417 52.7926H46.2312C46.1784 52.7926 46.1519 52.7191 46.1784 52.6797L52.963 44.0607C52.9814 44.0423 52.9814 44.0003 52.963 43.9793L46.1784 35.3602C46.1414 35.3104 46.1784 35.25 46.2312 35.25H50.2417C50.2629 35.25 50.2814 35.2605 50.2919 35.2815L55.029 41.4282C55.0501 41.4597 55.1003 41.4597 55.132 41.4282L59.8691 35.2815C59.8797 35.2605 59.9008 35.25 59.9193 35.25Z" fill="white"/>
<path d="M44.6062 52.408L47.2455 49.1745C47.264 49.1535 47.2746 49.1246 47.2746 49.1036L45.2508 35.3535C45.2403 35.3037 45.198 35.2617 45.1478 35.2617H42.4768C42.4345 35.2617 42.3949 35.2827 42.3843 35.322L36.0409 48.1693C36.0013 48.2507 35.8877 48.2507 35.8586 48.1693L29.4518 35.322C29.4307 35.2827 29.4016 35.2617 29.362 35.2617H26.6619C26.609 35.2617 26.5668 35.3037 26.5562 35.3535L24.0014 52.6809C23.9908 52.7413 24.041 52.8017 24.1044 52.8017H27.222C27.2748 52.8017 27.3277 52.7623 27.3277 52.7124L28.8679 41.4504C28.8785 41.348 29.0238 41.3297 29.0661 41.4215L34.7199 52.7518C34.741 52.7938 34.7728 52.8122 34.8124 52.8122H37.0237C37.0633 52.8122 37.1056 52.7938 37.1162 52.7518L42.7013 41.4819C42.741 41.39 42.8863 41.411 42.8968 41.5108L44.4186 52.3555C44.4292 52.4473 44.5533 52.4762 44.6062 52.408Z" fill="white"/>
</g>
<defs>
<filter id="filter0_i_2332_2104" x="16" y="16" width="56" height="58" filterUnits="userSpaceOnUse" color-interpolation-filters="sRGB">
<feFlood flood-opacity="0" result="BackgroundImageFix"/>
<feBlend mode="normal" in="SourceGraphic" in2="BackgroundImageFix" result="shape"/>
<feColorMatrix in="SourceAlpha" type="matrix" values="0 0 0 0 0 0 0 0 0 0 0 0 0 0 0 0 0 0 127 0" result="hardAlpha"/>
<feOffset dy="2"/>
<feGaussianBlur stdDeviation="2"/>
<feComposite in2="hardAlpha" operator="arithmetic" k2="-1" k3="1"/>
<feColorMatrix type="matrix" values="0 0 0 0 1 0 0 0 0 1 0 0 0 0 1 0 0 0 0.25 0"/>
<feBlend mode="normal" in2="shape" result="effect1_innerShadow_2332_2104"/>
</filter>
<filter id="filter1_i_2332_2104" x="8" y="8" width="72" height="74" filterUnits="userSpaceOnUse" color-interpolation-filters="sRGB">
<feFlood flood-opacity="0" result="BackgroundImageFix"/>
<feBlend mode="normal" in="SourceGraphic" in2="BackgroundImageFix" result="shape"/>
<feColorMatrix in="SourceAlpha" type="matrix" values="0 0 0 0 0 0 0 0 0 0 0 0 0 0 0 0 0 0 127 0" result="hardAlpha"/>
<feOffset dy="2"/>
<feGaussianBlur stdDeviation="2"/>
<feComposite in2="hardAlpha" operator="arithmetic" k2="-1" k3="1"/>
<feColorMatrix type="matrix" values="0 0 0 0 1 0 0 0 0 1 0 0 0 0 1 0 0 0 0.25 0"/>
<feBlend mode="normal" in2="shape" result="effect1_innerShadow_2332_2104"/>
</filter>
<filter id="filter2_i_2332_2104" x="0" y="0" width="88" height="90" filterUnits="userSpaceOnUse" color-interpolation-filters="sRGB">
<feFlood flood-opacity="0" result="BackgroundImageFix"/>
<feBlend mode="normal" in="SourceGraphic" in2="BackgroundImageFix" result="shape"/>
<feColorMatrix in="SourceAlpha" type="matrix" values="0 0 0 0 0 0 0 0 0 0 0 0 0 0 0 0 0 0 127 0" result="hardAlpha"/>
<feOffset dy="2"/>
<feGaussianBlur stdDeviation="2"/>
<feComposite in2="hardAlpha" operator="arithmetic" k2="-1" k3="1"/>
<feColorMatrix type="matrix" values="0 0 0 0 1 0 0 0 0 1 0 0 0 0 1 0 0 0 0.25 0"/>
<feBlend mode="normal" in2="shape" result="effect1_innerShadow_2332_2104"/>
</filter>
<clipPath id="clip0_2332_2104">
<rect width="40" height="40" fill="white" transform="translate(24 24)"/>
</clipPath>
</defs>
</svg>
