<svg width="48" height="48" viewBox="0 0 48 48" fill="none" xmlns="http://www.w3.org/2000/svg">
<rect width="48" height="48" fill="black"/>
<rect width="48" height="48" fill="url(#paint0_linear_2332_2099)" fill-opacity="0.9"/>
<path d="M9.75 33C9.75 32.1716 10.4216 31.5 11.25 31.5H36.75C37.5784 31.5 38.25 32.1716 38.25 33V33.75C38.25 34.5785 37.5784 35.25 36.75 35.25H11.25C10.4216 35.25 9.75 34.5785 9.75 33.75V33Z" fill="white"/>
<path fill-rule="evenodd" clip-rule="evenodd" d="M24.6285 12.2902C24.2296 12.1061 23.7702 12.1061 23.3713 12.2902L10.7008 18.1381C9.2404 18.8121 9.72095 21 11.3294 21H36.6704C38.2788 21 38.7594 18.8121 37.299 18.1381L24.6285 12.2902ZM23.9999 15C23.1714 15 22.4999 15.6716 22.4999 16.5C22.4999 17.3285 23.1714 18 23.9999 18C24.8283 18 25.4999 17.3285 25.4999 16.5C25.4999 15.6716 24.8283 15 23.9999 15Z" fill="white"/>
<path d="M15.75 21H12.75V31.5H35.25V21H32.25C32.6642 21 33 21.3358 33 21.75V29.25C33 29.6642 32.6642 30 32.25 30H29.25C28.8358 30 28.5 29.6642 28.5 29.25V21.75C28.5 21.3358 28.8358 21 29.25 21H25.5C25.9142 21 26.25 21.3358 26.25 21.75V29.25C26.25 29.6642 25.9142 30 25.5 30H22.5C22.0858 30 21.75 29.6642 21.75 29.25V21.75C21.75 21.3358 22.0858 21 22.5 21H18.75C19.1642 21 19.5 21.3358 19.5 21.75V29.25C19.5 29.6642 19.1642 30 18.75 30H15.75C15.3358 30 15 29.6642 15 29.25V21.75C15 21.3358 15.3358 21 15.75 21Z" fill="white"/>
<path d="M11.25 31.5H12.75V30C12.75 30.8285 12.0784 31.5 11.25 31.5Z" fill="white"/>
<path d="M35.25 30V31.5H36.75C35.9216 31.5 35.25 30.8285 35.25 30Z" fill="white"/>
<defs>
<linearGradient id="paint0_linear_2332_2099" x1="24" y1="7.15256e-07" x2="-2.14577e-06" y2="48" gradientUnits="userSpaceOnUse">
<stop stop-color="#2D64EF"/>
<stop offset="1" stop-color="#4DD6D6"/>
</linearGradient>
</defs>
</svg>
