<svg width="48" height="48" viewBox="0 0 48 48" fill="none" xmlns="http://www.w3.org/2000/svg">
<rect width="48" height="48" fill="white"/>
<rect width="48" height="48" fill="url(#paint0_linear_2330_2048)"/>
<path fill-rule="evenodd" clip-rule="evenodd" d="M15 12C15 10.3431 16.3431 9 18 9H30C31.6569 9 33 10.3431 33 12V36C33 37.6569 31.6569 39 30 39H18C16.3431 39 15 37.6569 15 36V12ZM21 12C21 11.5858 21.3358 11.25 21.75 11.25H26.25C26.6642 11.25 27 11.5858 27 12C27 12.4142 26.6642 12.75 26.25 12.75H21.75C21.3358 12.75 21 12.4142 21 12ZM18.75 15.75C18.3358 15.75 18 16.0858 18 16.5V21.75C18 22.1642 18.3358 22.5 18.75 22.5H29.25C29.6642 22.5 30 22.1642 30 21.75V16.5C30 16.0858 29.6642 15.75 29.25 15.75H18.75ZM18 26.25C18 25.8358 18.3358 25.5 18.75 25.5H29.25C29.6642 25.5 30 25.8358 30 26.25C30 26.6642 29.6642 27 29.25 27H18.75C18.3358 27 18 26.6642 18 26.25ZM18.75 28.5C18.3358 28.5 18 28.8358 18 29.25C18 29.6642 18.3358 30 18.75 30H26.25C26.6642 30 27 29.6642 27 29.25C27 28.8358 26.6642 28.5 26.25 28.5H18.75Z" fill="black"/>
<defs>
<linearGradient id="paint0_linear_2330_2048" x1="24" y1="7.15256e-07" x2="48" y2="48" gradientUnits="userSpaceOnUse">
<stop stop-color="#FF6799" stop-opacity="0.9"/>
<stop offset="1" stop-color="#FF967F"/>
</linearGradient>
</defs>
</svg>
