<svg width="240" height="40" viewBox="0 0 240 40" fill="none" xmlns="http://www.w3.org/2000/svg">
<rect x="0.25" y="0.25" width="239.5" height="39.5" rx="19.75" fill="#EEF1F6" stroke="#CDD3DD" stroke-width="0.5"/>
<rect x="145" y="18.5" width="3" height="3" rx="1.5" fill="#6A7381"/>
<rect x="138" y="18.5" width="3" height="3" rx="1.5" fill="#6A7381"/>
<rect x="92" y="18.5" width="3" height="3" rx="1.5" fill="#6A7381"/>
<rect x="99" y="18.5" width="3" height="3" rx="1.5" fill="#6A7381"/>
<circle cx="120" cy="20" r="14" fill="#6A7381"/>
<path fill-rule="evenodd" clip-rule="evenodd" d="M118.243 14.3329C118.633 13.9424 119.266 13.9424 119.657 14.3329C120.047 14.7235 120.047 15.3566 119.657 15.7471L116.404 19H126.59C127.142 19 127.59 19.4478 127.59 20C127.59 20.5523 127.142 21 126.59 21H116.392L119.661 24.2685C120.051 24.659 120.051 25.2921 119.661 25.6827C119.27 26.0732 118.637 26.0732 118.246 25.6827L113.297 20.7329C113.124 20.5603 113.028 20.3403 113.008 20.1148C112.971 19.819 113.066 19.5098 113.293 19.2827L118.243 14.3329Z" fill="white"/>
</svg>
